<svg xmlns="http://www.w3.org/2000/svg" width="256" height="256" viewBox="0 0 256 256">
  <defs>
    <linearGradient id="robe" x1="0" y1="0" x2="0" y2="1">
      <stop offset="0" stop-color="#9a6aff"/>
      <stop offset="1" stop-color="#3a1490"/>
    </linearGradient>
    <linearGradient id="wood" x1="0" y1="0" x2="1" y2="0">
      <stop offset="0" stop-color="#d0945a"/>
      <stop offset="1" stop-color="#6a3a16"/>
    </linearGradient>
    <radialGradient id="orb" cx="0.4" cy="0.35" r="0.65">
      <stop offset="0" stop-color="#ffffff"/>
      <stop offset="0.45" stop-color="#9fe6ff"/>
      <stop offset="1" stop-color="#1f7ad6"/>
    </radialGradient>
    <radialGradient id="skin" cx="0.45" cy="0.4" r="0.6">
      <stop offset="0" stop-color="#ffd9b8"/>
      <stop offset="1" stop-color="#c98a5e"/>
    </radialGradient>
    <filter id="glow" x="-50%" y="-50%" width="200%" height="200%"><feGaussianBlur stdDeviation="8"/></filter>
  </defs>
  <ellipse cx="128" cy="234" rx="92" ry="12" fill="#000" opacity="0.35"/>
  <circle cx="200" cy="54" r="34" fill="#6fd0ff" opacity="0.8" filter="url(#glow)"/>
  <g stroke="#120a24" stroke-width="6" stroke-linejoin="round" stroke-linecap="round">
    <path d="M196 238 L200 80" stroke-width="18"/>
    <path d="M196 238 L200 80" stroke="url(#wood)" stroke-width="8"/>
    <path d="M182 86 C182 70 218 70 218 86 L210 92 L190 92 Z" fill="#c9a24a"/>
    <circle cx="200" cy="54" r="24" fill="url(#orb)"/>
    <path d="M52 236 C58 184 90 160 128 160 C166 160 182 184 188 236 Z" fill="url(#robe)"/>
    <circle cx="124" cy="122" r="34" fill="url(#skin)"/>
    <path d="M70 108 L124 14 L178 108 Z" fill="url(#robe)"/>
    <path d="M60 110 L188 110" stroke-width="12"/>
    <path d="M60 110 L188 110" stroke="#6a3ad6" stroke-width="6"/>
    <path d="M104 150 C112 186 136 186 144 150 Z" fill="#f2f2f2"/>
  </g>
  <g fill="#ffe27a" stroke="#120a24" stroke-width="2.5">
    <path d="M118 60 L122 52 L126 60 L134 62 L127 67 L129 75 L122 70 L115 75 L117 67 L110 62 Z"/>
  </g>
  <g fill="#1a0a24">
    <circle cx="112" cy="126" r="5"/>
    <circle cx="136" cy="126" r="5"/>
  </g>
</svg>
