<svg xmlns="http://www.w3.org/2000/svg" width="128" height="128" viewBox="0 0 256 256">
  <defs>
    <linearGradient id="steel" x1="0" y1="0" x2="1" y2="1">
      <stop offset="0" stop-color="#9fc4ff"/>
      <stop offset="0.5" stop-color="#3f6fc4"/>
      <stop offset="1" stop-color="#1b3672"/>
    </linearGradient>
    <linearGradient id="gold" x1="0" y1="0" x2="0" y2="1">
      <stop offset="0" stop-color="#fff0a8"/>
      <stop offset="0.5" stop-color="#f0b429"/>
      <stop offset="1" stop-color="#8a5300"/>
    </linearGradient>
    <filter id="sh" x="-20%" y="-20%" width="140%" height="140%">
      <feDropShadow dx="0" dy="6" stdDeviation="5" flood-color="#000" flood-opacity="0.7"/>
    </filter>
  </defs>
  <g filter="url(#sh)" stroke-linejoin="round">
    <path d="M128 26 C162 44 192 46 214 44 C214 130 186 192 128 232 C70 192 42 130 42 44 C64 46 94 44 128 26 Z" fill="url(#gold)" stroke="#120c06" stroke-width="8"/>
    <path d="M128 48 C156 62 178 66 194 64 C190 132 168 180 128 210 C88 180 66 132 62 64 C78 66 100 62 128 48 Z" fill="url(#steel)" stroke="#0d1830" stroke-width="5"/>
    <path d="M128 52 L128 206" stroke="#e6f0ff" stroke-width="5" opacity="0.5"/>
    <path d="M70 70 C90 72 108 66 128 56" fill="none" stroke="#ffffff" stroke-width="6" opacity="0.55" stroke-linecap="round"/>
  </g>
</svg>
